<svg xmlns="http://www.w3.org/2000/svg">
  <symbol id="address" viewBox="0 0 513 513">
    <path d="m296 512.5h-176c-66.168 0-120-53.832-120-120v-272c0-66.168 53.832-120 120-120h272c66.168 0 120 53.832 120 120v101c-1.056 26.536-38.953 26.516-40 0v-101c0-44.112-35.888-80-80-80h-272c-44.112 0-80 35.888-80 80v272c0 44.112 35.888 80 80 80h176c26.536 1.056 26.516 38.953 0 40zm-24.809-335.906 61.951-61.952c7.811-7.811 7.81-20.474-.001-28.284-7.809-7.811-20.474-7.811-28.284 0l-61.951 61.952c-3.788 3.788-8.833 5.836-14.181 5.858-5.356-.01-10.384-2.11-14.157-5.912l-61.372-61.843c-7.781-7.841-20.445-7.889-28.284-.108-7.84 7.781-7.889 20.444-.108 28.284l61.372 61.843c11.319 11.406 26.403 17.705 42.473 17.736h.119c16.024-.001 31.087-6.239 42.423-17.574zm-155.95 155.948 42.959-43.566c22.985-23.311 22.919-61.174-.148-84.404l-42.861-43.164c-7.783-7.837-20.445-7.882-28.284-.1-7.838 7.783-7.882 20.446-.1 28.284l42.861 43.164c7.689 7.743 7.711 20.365.049 28.135l-42.959 43.566c-7.755 7.865-7.667 20.528.199 28.284 3.896 3.842 8.97 5.759 14.042 5.759 5.166 0 10.329-1.989 14.242-5.958zm332.532 159.688c43.282-54.942 65.227-96.854 65.227-124.57 0-59.088-48-107.16-107-107.16s-107 48.072-107 107.16c0 27.717 21.945 69.628 65.227 124.571 10.148 12.882 25.374 20.27 41.773 20.27s31.625-7.389 41.773-20.271zm-15.711-12.376h.01zm40.938-112.194c0 13.491-14.882 46.798-56.648 99.818-5.455 6.748-15.239 6.758-20.703 0-41.767-53.02-56.649-86.327-56.649-99.818 0-37.032 30.056-67.16 67-67.16s67 30.128 67 67.16zm-352 64.84c-17.561.106-26.752-21.608-14.142-34.142l291-291c7.811-7.811 20.475-7.811 28.285 0s7.81 20.474 0 28.284l-291 291c-3.906 3.905-9.024 5.858-14.143 5.858zm260-67c0 13.807 11.193 25 25 25 33.162-1.317 33.153-48.688 0-50-13.807 0-25 11.193-25 25z"/>
  </symbol>
  <!-- <symbol id="address" viewBox="0 0 472.482 472.482">
    <path d="M462.654,463.788c10.1-8.5,12.8-23.1,6.3-34.6l-62.5-111.2c-5.9-10.5-22-17.5-40.2-17.7c-22.5,31.5-54.1,67.1-98.4,103.9c-8.8,7.3-20,11.4-31.5,11.4s-22.7-4-31.5-11.4c-44.3-36.8-75.9-72.4-98.4-103.9c-18.2,0.2-34.4,7.2-40.2,17.7l-62.7,111.2c-6.5,11.5-3.9,26.1,6.3,34.6l0,0c5,4.2,11.3,6.5,17.8,6.5h95.4h226.5h95.4C451.354,470.288,457.654,467.988,462.654,463.788L462.654,463.788z"/>
    <path d="M236.254,97.188c-31.5,0-57.1,25.6-57.1,57.1c0,7.5,6.1,13.7,13.7,13.7c7.5,0,13.7-6.1,13.7-13.7c0-16.4,13.4-29.8,29.8-29.8c7.5,0,13.7-6.1,13.7-13.7C249.954,103.288,243.754,97.188,236.254,97.188z"/>
    <path d="M386.654,152.588c0-84.9-70.3-153.3-155.8-150.3c-74.9,2.6-137.2,61.1-144.3,135.7c-1.4,14.9-0.6,29.4,2,43.2l0,0c0,0,0.3,1.6,1,4.7c2.3,10.4,5.8,20.4,10.1,29.8c15.1,35.8,50,95.6,128.2,160.6c4.8,4,11.9,4,16.7,0c78.2-65,113.1-124.7,128.2-160.6c4.4-9.5,7.8-19.4,10.1-29.8c0.7-3.1,1-4.7,1-4.7l0,0C385.754,171.888,386.654,162.288,386.654,152.588z M236.254,245.788c-50.5,0-91.5-41-91.5-91.5s41-91.5,91.5-91.5s91.5,41,91.5,91.5S286.754,245.788,236.254,245.788z"/>
  </symbol> -->
  <symbol id="email" viewBox="0 0 512 512">
    <path d="m392 458h-272c-66.168 0-120-53.832-120-120v-164c0-66.168 53.832-120 120-120h272c66.168 0 120 53.832 120 120v164c0 66.168-53.832 120-120 120zm-272-364c-44.112 0-80 35.888-80 80v164c0 44.112 35.888 80 80 80h272c44.112 0 80-35.888 80-80v-164c0-44.112-35.888-80-80-80zm209.286 197.406 98.855-75.512c8.778-6.705 10.458-19.256 3.753-28.034-6.706-8.778-19.256-10.458-28.034-3.753l-98.843 75.503c-28.541 21.769-68.4 21.785-96.96.055l-95.781-74.455c-8.721-6.78-21.287-5.205-28.065 3.516-6.779 8.721-5.205 21.286 3.516 28.065l95.855 74.512c.048.038.097.075.146.112 21.424 16.34 47.094 24.509 72.77 24.509s51.357-8.174 72.788-24.518z"/>
  </symbol>
</svg>
