<svg xmlns="http://www.w3.org/2000/svg" xmlns:xlink="http://www.w3.org/1999/xlink" viewBox="0 0 1920 580">
  <path d="M291.9,360.2c10.4-21.1,17.3-39.8,20.7-56.2c1.6-7,2.3-13.9,2.3-20.7c0-6.8-1.2-12.8-3.7-18c-2.5-5.2-6.4-9.4-11.7-12.7c-5.3-3.3-12.7-4.9-22.1-4.9c-7.8,0-16.9,2.1-27.1,6.2c-10.3,4.2-20,8.9-29.1,14.1c-10.7,6-21.6,12.8-32.8,20.3c-3.9-4.7-6.8-9.4-8.6-14.1c-1.6-4.2-2.4-8.5-2.5-13.1c-0.1-4.6,2-9,6.4-13.5c2.9-2.9,8.8-7.6,17.8-14.3c9-6.6,19.5-14.5,31.4-23.6c12-9.1,24.6-19.1,37.9-30.1c13.3-10.9,25.6-21.9,37.1-33c11.5-11.1,21.1-21.9,28.9-32.4c7.8-10.5,12.2-20.2,13.3-29.1c1.8-14.6-2.3-24.8-12.3-30.7c-10-5.9-24.7-8.8-43.9-8.8c-13,0-26.7,2.5-41,7.6c-14.3,5.1-28.9,12-43.7,20.7c-14.8,8.7-29.6,18.7-44.3,29.9c-14.7,11.2-28.8,22.8-42.2,34.9c-13.4,12.1-25.9,24.3-37.5,36.7c-11.6,12.4-21.7,24-30.3,34.8c-8.6,10.8-15.5,20.4-20.7,28.7c-5.2,8.3-8.1,14.7-8.6,19.1c-0.8,5.2,0.4,8,3.5,8.4c3.1,0.4,7.4-0.9,12.9-3.9c5.5-3,11.8-7.5,18.9-13.5c7.2-6,14.7-12.6,22.6-19.9c7.9-7.3,15.8-15,23.6-23c7.8-8.1,15.1-15.9,21.9-23.4c2.9-3.6,4.9-7.2,6.2-10.5c1.3-3.4,2.2-6.4,2.7-9.2c0.5-2.7,1-4.9,1.6-6.6c0.5-1.7,1.4-2.5,2.7-2.5c5.5,0,10.6,1.3,15.4,3.9c4.8,2.6,9,6,12.7,10.2c3.6,4.2,6.5,8.9,8.6,14.1c2.1,5.2,3.1,10.4,3.1,15.6c0,5.2-2.4,12.5-7.2,21.9c-4.8,9.4-10.9,19.9-18.2,31.4c-7.3,11.6-15.2,23.7-23.6,36.3c-8.5,12.6-16.3,24.9-23.6,36.7c-7.3,11.8-13.3,22.7-18.2,32.6c-4.8,9.9-7.2,17.8-7.2,23.8c0,4.9-1.7,8.1-5.1,9.4c-3.4,1.3-7.3,0.8-11.7-1.4c-4.4-2.2-8.7-6.2-12.7-12.1c-4-5.9-6.8-13.3-8.4-22.5c-1-6.2-0.3-13.5,2.1-21.7c2.5-8.2,6-16.9,10.5-26c4.6-9.1,9.8-18.5,15.8-28.1c6-9.6,12.1-19.1,18.4-28.5c-5.5,4.7-11.1,9.3-17,13.9c-5.9,4.6-11.7,8.6-17.4,12.1c-5.7,3.5-11.3,6.3-16.8,8.4c-5.5,2.1-10.5,3.1-15.2,3.1c-4.4,0-8.4-0.9-11.9-2.7c-3.5-1.8-6.4-4.2-8.8-7c-2.3-2.9-4-6.1-5.1-9.8c-1-3.6-1.3-7.4-0.8-11.3c0.8-7.5,5.3-18.7,13.7-33.4c8.3-14.7,19.4-31,33.2-48.8c13.8-17.8,29.9-36.1,48.2-54.9s38.1-35.8,59.4-51.2c21.2-15.4,43.4-27.9,66.6-37.7c23.2-9.8,46.5-14.6,69.9-14.6c15.1,0,28.7,2.3,40.8,7s22.3,11.1,30.5,19.3c8.2,8.2,14.2,17.8,18,28.7c3.8,10.9,4.9,22.6,3.3,35.1c-1,7.3-3.6,14.8-7.6,22.6c-4,7.8-8.9,15.6-14.6,23.2c-5.7,7.7-12,15.1-18.7,22.3c-6.8,7.2-13.4,13.8-19.9,19.9c-6.5,6.1-12.5,11.5-18,16c-5.5,4.6-9.8,8-12.9,10.3c3.4,1.3,8.7,3.8,16,7.6c7.3,3.8,14.3,9.3,21.1,16.6c6.8,7.3,12.4,16.6,17,27.9c4.6,11.3,5.8,25.2,3.7,41.6c-0.8,5.5-2,10.9-3.5,16.4c10.7-8.6,20.4-18.9,29.3-30.8c3.1-4.2,6.1-8.2,9-12.1c2.9-3.9,5.6-7.8,8.2-11.7c1.6-2.1,3.3-3.4,5.1-4.1c1.8-0.6,3.4-0.6,4.9,0.2c1.4,0.8,2.2,2.2,2.3,4.3c0.1,2.1-0.8,4.7-2.9,7.8c-1.3,1.6-3.5,4.4-6.4,8.6c-3,4.2-6.7,9.2-11.1,15.2c-6,7.8-13,15.5-20.9,23c-7.9,7.6-16.1,14.6-24.4,21.1c-4.9,12.2-11.3,24.9-19.1,37.9c-7.8,13-16.5,25.7-26.2,38.1c-9.6,12.4-20,24.1-31,35.1c-11.1,11.1-22.4,20.8-34,29.3c-11.6,8.5-23.2,15.3-34.9,20.5c-11.7,5.2-23,8.1-34,8.6h0.4H158h-1.6c-13.3-0.8-22.3-4.6-27.1-11.3c-4.8-6.8-6.4-15.2-4.9-25.4c0.8-6.5,4.4-13.4,10.7-20.7c6.4-7.3,14.4-14.7,24-22.3c9.6-7.6,20.4-15,32.2-22.5c11.8-7.4,23.8-14.6,35.9-21.7c12.1-7,23.8-13.7,35.1-20.1C273.8,371.2,283.6,365.5,291.9,360.2z M136.5,174c-1.3,1.3-2.5,2.7-3.7,4.3s-2.4,3.1-3.7,4.7c0.3-0.5,0.6-1,1.2-1.6c0.5-0.5,0.9-1,1.2-1.6c0.3-0.5,0.6-1,1.2-1.6C133.7,177,135,175.6,136.5,174z M148.2,498.1c6,0,14.2-3.2,24.6-9.6c10.4-6.4,21.4-14.6,33-24.8c11.6-10.2,23-21.6,34.4-34.4c11.3-12.8,21-25.6,29.1-38.7c-7.3,4.4-15.4,9.4-24.4,14.8c-9,5.5-18,11.1-27.1,17c-9.1,5.9-18.1,11.8-26.9,17.8c-8.9,6-16.7,11.9-23.6,17.8c-6.9,5.9-12.6,11.3-17.2,16.4c-4.6,5.1-7.1,9.7-7.6,13.9c-0.5,2.6-0.4,4.9,0.4,6.8S145.4,498.1,148.2,498.1z"/>
  <path d="M492.2,368.1c-2.9,0-5.5-0.5-8-1.6c-2.5-1-4.5-2.2-6.1-3.5c-1.6,2.1-3,3.8-4.3,5.1c-0.5,0.3-1,0.8-1.6,1.6c-0.5,0.5-1.1,1.2-1.8,2c-0.7,0.8-1.4,1.7-2.1,2.7c-9.4,9.9-19.5,18.6-30.5,26.2c-10.9,7.6-21.9,12.1-32.8,13.7c-0.3,0.3-0.7,0.4-1.2,0.4c-1,0-1.7,0.1-2,0.4h-3.9c-3.9,0-8.3-0.6-13.1-2c-4.8-1.3-9.4-3.7-13.7-7.2c-4.3-3.5-7.9-8.5-10.7-14.8c-2.9-6.4-4.3-14.8-4.3-25.2c0-11.7,1.9-23.4,5.7-35.1c3.8-11.7,8.8-22.9,15.2-33.6c6.4-10.7,13.7-20.7,21.9-30.1c8.2-9.4,16.7-17.5,25.4-24.4c8.7-6.9,17.4-12.3,26-16.2c8.6-3.9,16.4-5.9,23.4-5.9c10.9,0,20.3,3.1,28.1,9.2c7.8,6.1,14.2,13.3,19.1,21.7c0.8,1.3,0,3-2.3,5.1c-2.3,2.1-7.9,3.1-16.8,3.1c-10.7,0-21.3,3.5-32,10.3c-10.7,6.9-20.6,15.5-29.7,25.8c-9.1,10.3-17.1,21.4-24,33.4c-6.9,12-12.2,23.1-15.8,33.4c-3.6,10.3-5.3,18.9-4.9,25.8c0.4,6.9,3.4,10.3,9.2,10.3c5.7,0,12.4-2.3,19.9-7c7.5-4.7,14.7-10,21.5-16c8.1-6.8,16.1-14.4,24.2-23c-0.8-1.8-1.4-4-2-6.6c-0.5-2.1-0.9-4.6-1.2-7.4c-0.3-2.9-0.4-6.1-0.4-9.8c0-7.8,2-14.4,6.1-19.9c4-5.5,8.5-9,13.3-10.7c4.8-1.7,9.2-1.2,13.3,1.6c4,2.7,6.1,8.1,6.1,16.2c0,3.6-1.7,8.5-5.1,14.4c-3.4,6-8.2,13.1-14.4,21.5c0.5,0.5,1.6,1.1,3.3,1.8c1.7,0.7,3.1,1,4.1,1c4.7,0,9.4-1.8,14.1-5.3c4.7-3.5,9.8-8.6,15.2-15.2c5.5-6.6,11.4-14.7,17.8-24.2c6.4-9.5,13.5-20.2,21.3-32.2c1.3-2.1,2.9-3.4,4.9-4.1c2-0.6,3.6-0.6,4.9,0.2c1.3,0.8,2,2.2,2.1,4.3c0.1,2.1-0.8,4.7-2.9,7.8c-1.3,2.1-3.3,5.5-6.1,10.3c-2.7,4.8-6.1,10.2-10.2,16.2c-4,6-8.5,12.3-13.5,18.9c-4.9,6.6-10.1,12.7-15.4,18.2c-5.3,5.5-10.9,10-16.6,13.5C503.3,366.3,497.7,368.1,492.2,368.1z"/>
  <path d="M656.6,394.6c2.9,0,8.5-3.6,17-10.9c8.5-7.3,18.1-16.6,28.9-27.9c10.8-11.3,21.9-23.8,33.2-37.5c11.3-13.7,21.3-27,29.9-40c1.6-2.1,3.3-3.4,5.1-4.1c1.8-0.6,3.4-0.6,4.9,0.2c1.4,0.8,2.2,2.2,2.3,4.3c0.1,2.1-0.8,4.7-2.9,7.8c-1.3,2.1-4.6,6.7-10,13.9c-5.3,7.2-11.8,15.5-19.5,25c-7.7,9.5-16.1,19.5-25.4,30.1c-9.2,10.5-18.4,20.2-27.5,29.1c-9.1,8.9-17.8,16.1-26.2,21.9c-8.3,5.7-15.5,8.6-21.5,8.6c-4.7,0-9.2-0.8-13.5-2.5c-4.3-1.7-8.1-4.5-11.3-8.4c-3.3-3.9-5.9-9.1-8-15.6c-2.1-6.5-3.1-14.4-3.1-23.8c-7.6,9.6-14.7,18.1-21.5,25.4c-6,6.2-12.2,12-18.5,17.2c-6.4,5.2-11.7,7.8-15.8,7.8c-4.2,0-8.7-0.8-13.5-2.5c-4.8-1.7-9.3-4.5-13.5-8.4c-4.2-3.9-7.6-8.9-10.3-15c-2.7-6.1-4.1-13.6-4.1-22.5c0-8.8,2.3-18.6,7-29.3c4.7-10.7,10.9-21.4,18.5-32.2c7.7-10.8,16.3-21.2,26-31.2c9.6-10,19.3-18.9,29.1-26.7c9.8-7.8,19.1-14.1,27.9-18.7c8.8-4.7,16.4-7,22.6-7c6.8,0,12.5,1.2,17.2,3.7c4.7,2.5,8.5,5.1,11.3,8c3.1,3.4,5.6,7.2,7.4,11.3c15.9-25.8,30.1-49.5,42.6-71.1c5.5-9.1,10.7-18.3,15.8-27.5c5.1-9.2,9.6-17.8,13.7-25.8c4-7.9,7.3-14.9,9.8-20.9c2.5-6,3.7-10.4,3.7-13.3c0-3.1,1.8-5.2,5.3-6.2c3.5-1,7.3-0.3,11.3,2.1c4,2.5,7.8,7.2,11.3,14.1c3.5,6.9,5.3,16.6,5.3,29.1c0,5.7-2.4,13.9-7.2,24.6c-4.8,10.7-11.1,22.8-18.7,36.5c-7.7,13.7-16.3,28.3-26,43.9c-9.6,15.6-19.3,31.2-28.9,46.7c-9.6,15.5-18.8,30.3-27.5,44.5c-8.7,14.2-16.1,26.7-22.1,37.7c-6,10.9-10.1,19.7-12.3,26.2C652.7,391.4,653.2,394.6,656.6,394.6z M559.8,395.8c3.9,0,9.8-3.5,17.6-10.5c7.8-7,16.3-15.8,25.4-26.4c9.1-10.5,18.3-22,27.5-34.4c9.2-12.4,17.1-23.8,23.6-34.4c6.5-10.5,11-19.3,13.5-26.4c2.5-7,1.6-10.5-2.5-10.5c-3.1,0-8,2.4-14.6,7.2c-6.6,4.8-13.9,11.1-21.9,18.9c-7.9,7.8-16.1,16.7-24.6,26.7c-8.5,10-16.2,20.2-23.2,30.5c-7,10.3-12.8,20.3-17.2,30.1c-4.4,9.8-6.6,18.4-6.6,26c0,0.5,0.1,1,0.4,1.6C557.6,395.3,558.5,395.8,559.8,395.8z"/>
  <path d="M948.3,275.5c1.3-2.1,2.9-3.4,4.9-4.1c2-0.6,3.6-0.6,4.9,0.2c1.3,0.8,2,2.2,2.1,4.3c0.1,2.1-0.8,4.7-2.9,7.8c-1.3,2.1-4.4,6.2-9.4,12.5c-4.9,6.2-11.1,13.7-18.5,22.3c-7.4,8.6-15.6,17.8-24.4,27.5c-8.9,9.8-17.8,19-26.9,27.7c-9.1,8.7-18,16.4-26.6,23.2c-8.6,6.7-16.1,11.3-22.6,13.7l-1.2,1.6l-4.7,7.4c-12.5,18.7-25.9,36.6-40.2,53.7c-14.3,17-29,32.2-44.1,45.5c-14.1,13.3-27.5,23.9-40.4,32c-12.9,8.1-27,12.1-42.4,12.1c-3.9,0-7.9-0.8-11.9-2.3c-4-1.6-7.8-4-11.3-7.2c-3.5-3.3-6.5-7.3-9-12.1c-2.5-4.8-4-10.5-4.5-17c-0.3-3.1,1.6-6.8,5.5-10.9c3.9-4.2,9.1-8.7,15.6-13.5c6.5-4.8,13.9-9.8,22.3-14.9c8.3-5.1,16.9-10,25.8-14.7c20.6-11.2,44.1-22.8,70.7-34.8c2.3-2.6,5-6.1,8-10.5c3-4.4,6.2-9.2,9.6-14.5c-4.4,2.7-8.1,4-10.9,4c-3.9,0-8.1-0.8-12.5-2.4c-4.4-1.6-8.5-4.1-12.3-7.6c-3.8-3.5-7-7.8-9.8-13s-4.5-11.5-5.3-18.8c-0.5-4.7,0.7-10.8,3.7-18.4c3-7.5,6.7-15.8,11.1-24.8c4.4-9,9.3-18.5,14.6-28.5c5.3-10,10.2-19.8,14.6-29.5c4.4-9.6,8-18.7,10.7-27.1c2.7-8.5,3.8-15.8,3.3-22.1c-0.3-2.3,1.2-3.2,4.5-2.5c3.3,0.7,7,2.6,11.1,5.9c4.2,3.3,8.1,7.8,11.7,13.7c3.6,5.9,5.9,12.7,6.6,20.5c0.5,5.2-1,12.2-4.5,21.1c-3.5,8.9-7.9,18.4-13.1,28.7c-5.2,10.3-10.7,20.6-16.4,31c-5.7,10.4-10.5,19.9-14.4,28.5c-3.9,8.6-6.4,15.6-7.6,20.9c-1.2,5.3,0.3,8,4.5,8c4.4,0,10.2-3.4,17.2-10.2c7-6.8,14.4-15.5,22.1-26.2c7.7-10.7,15.4-22.7,23-36.1c7.7-13.4,14.6-26.7,20.7-40c6.1-13.3,10.9-25.8,14.3-37.5c3.4-11.7,4.8-21.3,4.3-28.9c-0.3-1.8,1-2.1,3.9-1c2.9,1.2,6.1,3.6,9.6,7.4c3.5,3.8,6.8,8.6,10,14.4c3.1,5.9,5.1,12.6,5.9,20.1c0.3,5.2-0.7,12-2.9,20.5c-2.2,8.5-5.6,18-10.2,28.7c-4.6,10.7-10.2,22.4-16.8,35.1c-6.6,12.8-14.1,26.2-22.5,40.2c6.2-4.4,13.8-10.6,22.6-18.5c8.8-7.9,18.1-16.9,27.7-26.9c9.6-10,19.1-20.6,28.5-31.6C933.1,296.7,941.3,285.9,948.3,275.5z M643,537.9c4.7,0,9.8-1.2,15.4-3.7c5.6-2.5,11.2-5.7,16.8-9.6c5.6-3.9,11.3-8.4,17-13.5c5.7-5.1,11.2-10.2,16.4-15.4c12.2-12.5,24.5-26.6,36.7-42.2c-21.9,11.2-41.4,21.6-58.6,31.2c-7.3,4.2-14.4,8.3-21.5,12.5c-7,4.2-13.2,8.1-18.5,11.9c-5.3,3.8-9.6,7.2-12.9,10.3c-3.3,3.1-4.7,5.5-4.5,7c0.5,3.6,2,6.4,4.5,8.4C636.3,536.9,639.3,537.9,643,537.9z"/>
  <path d="M1136.1,301.3c7.5,0,12.9,1.4,16,4.3c3.1,2.9,4.7,5.2,4.7,7c0.3,2.6-2.9,4.9-9.6,6.8c-6.6,2-15.2,3.6-25.8,5.1c-10.5,1.4-22.1,2.6-34.8,3.5c-12.6,0.9-24.8,1.6-36.5,2.1c-11.7,0.5-22.1,0.9-31,1.2c-9,0.3-15.2,0.5-18.5,0.8c-5.2,0-9.9-1.9-14.1-5.7c-4.2-3.8-7.6-7.9-10.3-12.5c-2.7-4.6-4.4-8.7-5.1-12.5c-0.7-3.8,0.2-5.7,2.5-5.7c0.5,0,3.5,0.2,9,0.6c5.5,0.4,12.5,0.8,21.1,1.4c8.6,0.5,18.4,1.1,29.5,1.8c11.1,0.7,22.6,1.2,34.6,1.6c12,0.4,23.8,0.7,35.5,0.8C1115,302,1126,301.8,1136.1,301.3z"/>
  <path d="M1676.1,470.4c2.6,1.3,4.8,4.4,6.6,9.4c1.8,4.9,2.9,10.7,3.3,17.4c0.4,6.6-0.1,13.8-1.4,21.5c-1.3,7.7-3.9,14.9-7.8,21.7c-5.2,9.1-13,17.2-23.4,24.2c-10.4,7-23.3,11.7-38.7,14.1c-15.4,2.3-33,1.8-52.9-1.8c-19.9-3.5-41.8-11.1-65.8-22.8c-18.7-9.1-36.5-19.9-53.3-32.2c-16.8-12.4-33.1-25.4-49-39c-15.9-13.7-31.7-27.5-47.4-41.4c-15.8-13.9-31.8-27-48.2-39.2c-3.9,8.1-8,15-12.3,20.9c-4.3,5.9-10,12.2-17.2,18.9c-7.2,6.8-15.9,13.1-26.4,18.9c-10.4,5.9-22.7,10.7-36.9,14.6c-14.2,3.9-30.4,5.9-48.6,5.9c-20.8,0-38.3-4-52.3-11.9c-14.1-7.9-24.6-17.9-31.6-29.9c-7-12-10.3-24.9-10-38.9c0.4-13.9,4.4-26.9,12.1-38.9c7.7-12,19.1-21.9,34.4-29.9c15.2-7.9,34.4-11.9,57.6-11.9c10.2,0,20.5,1.1,31,3.3c10.5,2.2,20.4,4.8,29.7,7.8c9.2,3,17.5,6.1,24.8,9.2c7.3,3.1,12.8,5.5,16.4,7c0.3,0.3,0.8,0.5,1.6,0.8c0.5,0.3,1,0.5,1.6,0.6c0.5,0.1,1,0.3,1.6,0.6c0.5-1,1.9-4,4.1-9c2.2-4.9,5.1-11.3,8.6-19.1c3.5-7.8,7.7-16.9,12.7-27.3c4.9-10.4,10.4-21.7,16.4-34c-8.3-0.3-16.5-1-24.6-2.3c-18-2.6-32.8-7.8-44.5-15.6c-11.7-7.8-20.8-17.2-27.3-28.3c-6.5-11.1-10.5-23.2-11.9-36.5c-1.4-13.3-0.7-26.9,2.1-40.8c2.9-13.9,7.7-27.6,14.4-41c6.8-13.4,15.1-25.7,25-36.9c9.1-10.4,20-18.5,32.8-24.4c12.8-5.9,25.3-10.2,37.7-12.9c12.4-2.7,23.6-4.3,33.6-4.7c10-0.4,17-0.3,20.9,0.2c14.3,2.3,19.3,5.9,14.8,10.5c-1.8,2.1-3.6,3.1-5.5,3.1c-1.8,0-3.6-0.3-5.5-0.8c-2.1-0.8-4-2-5.9-3.5c-8.6,0.8-17.7,3-27.3,6.6c-8.3,3.1-17.6,8-27.7,14.6c-10.2,6.6-20.6,16.1-31.2,28.3c-16.7,19-27.7,37.4-33.2,55.3c-5.5,17.8-6.8,33.9-4.1,48.2c2.7,14.3,8.8,26.2,18.4,35.7c9.5,9.5,21.1,15.3,34.9,17.4c2.1,0.3,4.6,0.5,7.4,0.8c4.9,0.5,11.6,0.5,19.9,0c8.6-16.9,17.8-34.4,27.7-52.5c9.9-18.1,20-35.8,30.5-53.1c10.4-17.3,21-33.6,31.8-49c10.8-15.4,21.4-28.9,31.8-40.6c10.4-11.7,20.5-21,30.3-27.7c9.8-6.8,18.9-10.2,27.5-10.2c3.6,0,6.3,1.8,8,5.3c1.7,3.5,2.9,7.7,3.5,12.7c0.6,4.9,0.8,10.2,0.6,15.6c-0.3,5.5-0.5,10-0.8,13.7c-2.1,20-5.7,38.4-10.9,55.1c-5.2,16.7-11.5,31.8-18.7,45.5c-7.3,13.7-15.2,25.8-23.8,36.5c-8.6,10.7-17.3,20-26.2,28.1c-20.6,19-43.2,34-67.9,44.9l-56.6,115.6c16.4,10.2,33,21,49.8,32.4c16.8,11.5,33.4,22.8,50,34c16.5,11.2,32.9,21.9,49,32c16.1,10.2,31.6,18.9,46.5,26.2c18.7,9.1,36.2,16,52.3,20.7c16.1,4.7,30.7,7.2,43.5,7.6s23.9-1.2,33-4.9c9.1-3.6,15.9-9.2,20.3-16.8c2.3-4.2,4-8.5,5.1-12.9c1-4.4,2-8.4,2.9-11.9c0.9-3.5,2-6.1,3.1-7.8C1672,469.6,1673.8,469.3,1676.1,470.4z M1159.2,443c13.8,0,26.2-2.1,37.3-6.4c11.1-4.3,20.9-9.8,29.5-16.4c8.6-6.6,15.8-14,21.7-22.1c5.9-8.1,10.3-15.7,13.5-23c-8.3-5.2-17.7-9.9-28.1-14.1c-8.9-3.6-19.2-6.9-31-9.8c-11.8-2.9-24.5-4.3-38.1-4.3c-22.4,0-40.2,2.3-53.3,7c-13.1,4.7-22.3,10.6-27.5,17.8c-5.2,7.2-7,14.9-5.3,23.2c1.7,8.3,6.1,16.1,13.3,23.2c7.2,7.2,16.6,13.1,28.3,17.8C1131,440.7,1144.3,443,1159.2,443z M1494.6,32.6c-1.6,0-4.3,2.7-8.2,8.2c-3.9,5.5-8.6,12.6-14.1,21.5c-5.5,8.9-11.4,19-17.8,30.5c-6.4,11.5-12.8,23-19.3,34.8c-15.4,27.6-32.2,59.1-50.4,94.5c7.5,0,16.1-4.7,25.8-14.1c9.6-9.4,19.3-21.1,28.9-35.1c9.6-14.1,18.7-29.2,27.1-45.5c8.5-16.3,15.5-31.4,21.1-45.5c5.6-14.1,9.2-25.8,10.7-35.1C1500,37.3,1498.7,32.6,1494.6,32.6z"/>
  <path d="M1582,276.7c1.6-2.1,3.3-3.4,5.1-3.9c1.8-0.5,3.4-0.4,4.9,0.4c1.4,0.8,2.2,2.2,2.3,4.3c0.1,2.1-0.8,4.7-2.9,7.8c-1.3,2.1-4.6,6.7-10,13.9c-5.3,7.2-11.8,15.5-19.3,25c-7.6,9.5-15.9,19.6-25,30.3c-9.1,10.7-18.2,20.4-27.3,29.3c-9.1,8.9-17.8,16.1-26.2,21.9c-8.3,5.7-15.5,8.6-21.5,8.6c-7.6,0-13.7-1.8-18.4-5.3c-4.7-3.5-8.3-7.9-10.9-13.3c-2.6-5.3-4.3-11.1-5.1-17.4c-0.8-6.2-0.9-12-0.4-17.2c0.5-7,3.1-15.2,7.8-24.4c4.7-9.2,10.2-19.2,16.4-29.9c6.2-10.7,12.7-21.8,19.3-33.4c6.6-11.6,12.3-23.2,17-34.9c0.8-1.8,1.3-3.8,1.6-5.9c0.3-2.1,0.6-4,1.2-5.7c0.5-1.7,1.3-3.1,2.3-4.1c1-1,2.7-1.6,5.1-1.6s5.1,1,8.2,2.9c3.1,2,6,4.8,8.6,8.6c2.6,3.8,4.7,8.5,6.2,14.3c1.6,5.7,2,12.4,1.2,19.9c-0.5,5.2-3,11.9-7.4,20.1c-4.4,8.2-9.6,17-15.4,26.4c-5.9,9.4-11.8,18.8-17.8,28.3c-6,9.5-10.7,18.2-14.1,26c-3.4,7.8-4.9,14.1-4.5,18.9c0.4,4.8,4,7.2,10.7,7.2c2.9,0,8.5-3.6,17-10.9c8.5-7.3,18-16.6,28.5-27.9c10.5-11.3,21.5-23.9,32.8-37.7C1563.5,303.5,1573.4,290,1582,276.7z M1542.6,209.9c-2.3,0-4.9-1-7.6-2.9s-5.3-4.9-7.6-8.8s-4.2-8.7-5.7-14.3c-1.4-5.6-1.8-11.9-1-18.9c0.5-7,2-13,4.3-18c2.3-4.9,4.9-8.8,7.8-11.7c2.9-2.9,5.9-4.9,9-6.2c3.1-1.3,5.9-2,8.2-2s5.5,0.7,9.6,2.1c4,1.4,8,3.3,11.9,5.7c3.9,2.3,7.2,5,10,8c2.7,3,4,6.2,3.7,9.6c-0.3,3.4-1.2,6.2-2.7,8.4c-1.6,2.2-3.5,4.5-5.9,6.8s-4.9,5.1-7.8,8.4c-2.9,3.3-5.9,7.5-9,12.7c-3.1,5.2-5.5,9.2-7,12.1c-1.6,2.9-2.9,4.9-3.9,6.2c-1,1.3-2,2.1-2.7,2.3C1545.3,209.8,1544.2,209.9,1542.6,209.9z"/>
  <path d="M1649.6,414.9c-7.6,0-13.9-4.6-18.9-13.9c-5.1-9.2-7.6-21.3-7.6-36.1c0-4.2,0.8-8.9,2.5-14.3c1.7-5.3,3.9-10.9,6.6-16.8c2.7-5.9,5.8-11.9,9.2-18.2c3.4-6.2,6.9-12.4,10.5-18.4c8.6-13.8,18.2-28.2,28.9-43.3c-2.1,0-6.6,3.3-13.7,9.8c-7,6.5-15.2,14.7-24.4,24.6c-9.2,9.9-18.9,20.8-29.1,32.8c-10.2,12-19.5,23.5-27.9,34.6c-8.5,11.1-15.5,20.8-21.1,29.3c-5.6,8.5-8.4,14.3-8.4,17.5c0,7.4-1.4,11.4-4.1,11.9c-2.7,0.5-5.8-1.1-9.2-4.8c-3.4-3.7-6.4-9-9.2-16c-2.7-7-4.1-14.3-4.1-22.2c0-5.2,1.9-11.7,5.7-19.5c3.8-7.8,8.5-16.3,14.3-25.4c5.7-9.1,12-18.6,18.7-28.5c6.8-9.9,13-19.5,18.7-28.9c5.7-9.4,10.5-18.4,14.3-26.9c3.8-8.6,5.7-16.1,5.7-22.6c0-3.4,1.5-5,4.5-4.9c3,0.1,6.2,1.9,9.8,5.3c3.5,3.4,6.8,8.5,9.8,15.2c3,6.8,4.5,15,4.5,24.6c0,4.9-0.7,9.3-2.1,13.1c-1.4,3.8-2.9,7.1-4.5,10c-2.1,3.1-4.3,6.1-6.6,9c13.3-13.5,25.6-25.5,37.1-35.9c4.9-4.4,9.8-8.8,14.6-13.3c4.8-4.4,9.4-8.3,13.7-11.7c4.3-3.4,8.1-6.1,11.5-8.2c3.4-2.1,5.9-3.1,7.4-3.1c3.4,0,6.4,1.1,9.2,3.3c2.7,2.2,5,5.2,6.8,9c1.8,3.8,3.3,8,4.3,12.7c1,4.7,1.6,9.4,1.6,14.1c0,3.1-2.2,8.7-6.6,16.6c-4.4,7.9-9.9,17-16.4,27.1c-6.5,10.2-13.3,20.6-20.5,31.4c-7.2,10.8-13.5,20.7-18.9,29.7c-5.5,9-9.4,16.4-11.9,22.3c-2.5,5.9-2.1,8.8,1,8.8c5.7,0,13.3-3.8,22.8-11.3c9.5-7.5,19.7-17.1,30.5-28.7c10.8-11.6,21.7-24.4,32.6-38.5c10.9-14.1,20.7-27.6,29.3-40.6c1.3-2.1,2.9-3.4,4.9-4.1c2-0.6,3.6-0.6,4.9,0.2c1.3,0.8,2,2.2,2.1,4.3c0.1,2.1-0.8,4.7-2.9,7.8c-1.3,2.1-4.6,6.8-9.8,14.1c-5.2,7.3-11.5,15.8-18.9,25.4c-7.4,9.6-15.6,19.9-24.6,30.7c-9,10.8-18.1,20.7-27.3,29.7c-9.2,9-18.1,16.5-26.6,22.5C1663.6,411.9,1656.1,414.9,1649.6,414.9z"/>
  <path d="M1907.7,278.6c1.6-2.1,3.3-3.4,5.1-4.1c1.8-0.6,3.4-0.6,4.9,0.2c1.4,0.8,2.2,2.2,2.3,4.3c0.1,2.1-0.8,4.7-2.9,7.8c-1.3,2.1-4.8,6.7-10.5,13.9c-5.7,7.2-12.9,15.5-21.5,25c-8.6,9.5-18.1,19.5-28.5,30.1c-10.4,10.5-21,20.2-31.8,28.9c-10.8,8.7-21.3,15.9-31.6,21.7c-10.3,5.7-19.6,8.6-27.9,8.6c-7-0.5-13.3-2.6-18.7-6.2c-4.7-3.1-9-7.9-12.9-14.3c-3.9-6.4-5.9-15.7-5.9-27.9c0-11.7,2.3-23.5,7-35.3c4.7-11.8,10.7-23.2,18.2-34c7.4-10.8,15.7-20.9,24.8-30.3c9.1-9.4,18-17.6,26.7-24.6c8.7-7,16.9-12.5,24.4-16.4c7.5-3.9,13.5-5.9,18-5.9c2.6,0,5.5,0.6,8.6,1.8c3.1,1.2,6.1,3.3,8.8,6.4c2.7,3.1,5.1,7.6,7,13.3c2,5.7,2.9,13.3,2.9,22.6c0,6.2-2.1,13.1-6.2,20.5c-4.2,7.4-9.5,14.8-16,22.3c-6.5,7.4-13.7,14.6-21.7,21.7c-7.9,7-15.8,13.3-23.4,18.7c-7.7,5.5-14.7,9.8-21.1,13.1c-6.4,3.3-11.3,4.9-14.6,4.9c-2.3,4.9-3.9,9.4-4.7,13.3c-0.5,3.4-0.2,6.4,1,9c1.2,2.6,4.4,3.9,9.6,3.9c6.5,0,15.4-3.4,26.6-10.3c11.2-6.9,23.1-15.7,35.7-26.6c12.6-10.8,25.1-22.9,37.3-36.3C1888.7,304.9,1899.1,291.7,1907.7,278.6z M1842.9,268.5c-1.6,0-3.8,1.2-6.6,3.5c-2.9,2.3-5.9,5.5-9.2,9.4c-3.3,3.9-6.8,8.3-10.5,13.3c-3.8,4.9-7.5,9.9-11.1,14.8c-8.6,12.2-17.8,25.9-27.7,41c13.3-7.8,24.7-16.5,34.4-26c9.6-9.5,17.3-18.4,23-26.7c5.7-8.3,9.2-15.3,10.5-20.9C1846.9,271.3,1846,268.5,1842.9,268.5z"/>
</svg>
