<svg xmlns="http://www.w3.org/2000/svg">
  <symbol id="sign-out" viewBox="0 0 512.016 512">
    <path d="m496 240.007812h-202.667969c-8.832031 0-16-7.167968-16-16 0-8.832031 7.167969-16 16-16h202.667969c8.832031 0 16 7.167969 16 16 0 8.832032-7.167969 16-16 16zm0 0"/>
    <path d="m416 320.007812c-4.097656 0-8.191406-1.558593-11.308594-4.691406-6.25-6.253906-6.25-16.386718 0-22.636718l68.695313-68.691407-68.695313-68.695312c-6.25-6.25-6.25-16.382813 0-22.632813 6.253906-6.253906 16.386719-6.253906 22.636719 0l80 80c6.25 6.25 6.25 16.382813 0 22.632813l-80 80c-3.136719 3.15625-7.230469 4.714843-11.328125 4.714843zm0 0"/>
    <path d="m170.667969 512.007812c-4.566407 0-8.898438-.640624-13.226563-1.984374l-128.386718-42.773438c-17.46875-6.101562-29.054688-22.378906-29.054688-40.574219v-384c0-23.53125 19.136719-42.6679685 42.667969-42.6679685 4.5625 0 8.894531.6406255 13.226562 1.9843755l128.382813 42.773437c17.472656 6.101563 29.054687 22.378906 29.054687 40.574219v384c0 23.53125-19.132812 42.667968-42.664062 42.667968zm-128-480c-5.867188 0-10.667969 4.800782-10.667969 10.667969v384c0 4.542969 3.050781 8.765625 7.402344 10.28125l127.785156 42.582031c.917969.296876 2.113281.46875 3.480469.46875 5.867187 0 10.664062-4.800781 10.664062-10.667968v-384c0-4.542969-3.050781-8.765625-7.402343-10.28125l-127.785157-42.582032c-.917969-.296874-2.113281-.46875-3.476562-.46875zm0 0"/>
    <path d="m325.332031 170.675781c-8.832031 0-16-7.167969-16-16v-96c0-14.699219-11.964843-26.667969-26.664062-26.667969h-240c-8.832031 0-16-7.167968-16-16 0-8.832031 7.167969-15.9999995 16-15.9999995h240c32.363281 0 58.664062 26.3046875 58.664062 58.6679685v96c0 8.832031-7.167969 16-16 16zm0 0"/>
    <path d="m282.667969 448.007812h-85.335938c-8.832031 0-16-7.167968-16-16 0-8.832031 7.167969-16 16-16h85.335938c14.699219 0 26.664062-11.96875 26.664062-26.667968v-96c0-8.832032 7.167969-16 16-16s16 7.167968 16 16v96c0 32.363281-26.300781 58.667968-58.664062 58.667968zm0 0"/>
  </symbol>
  <!-- <symbol id="phone" viewBox="0 0 211.621 211.621">
    <path d="M180.948,27.722C163.07,9.844,139.299-0.001,114.017,0c-4.143,0-7.5,3.358-7.5,7.5c0,4.142,3.358,7.5,7.5,7.5c21.276-0.001,41.279,8.284,56.324,23.329c15.046,15.045,23.331,35.049,23.33,56.326c0,4.142,3.357,7.5,7.5,7.5c4.142,0,7.5-3.358,7.5-7.499C208.672,69.371,198.827,45.6,180.948,27.722z"/>
    <path d="M150.096,94.656c0,4.142,3.358,7.5,7.501,7.499c4.142,0,7.499-3.358,7.499-7.5c-0.002-28.16-22.916-51.073-51.078-51.077c-0.001,0,0,0-0.001,0c-4.142,0-7.499,3.357-7.5,7.499c0,4.142,3.357,7.5,7.499,7.501C133.909,58.581,150.094,74.765,150.096,94.656z"/>
    <path d="M133.5,132.896c-11.432-0.592-17.256,7.91-20.049,11.994c-2.339,3.419-1.463,8.086,1.956,10.425c3.419,2.339,8.086,1.463,10.425-1.956c3.3-4.825,4.795-5.584,6.823-5.488c6.491,0.763,32.056,19.497,34.616,25.355c0.642,1.725,0.618,3.416-0.071,5.473c-2.684,7.966-7.127,13.564-12.851,16.188c-5.438,2.493-12.105,2.267-19.276-0.651c-26.777-10.914-50.171-26.145-69.531-45.271c-0.008-0.008-0.016-0.015-0.023-0.023c-19.086-19.341-34.289-42.705-45.185-69.441c-2.919-7.177-3.145-13.845-0.652-19.282c2.624-5.724,8.222-10.167,16.181-12.848c2.064-0.692,3.752-0.714,5.461-0.078c5.879,2.569,24.612,28.133,25.368,34.551c0.108,2.104-0.657,3.598-5.478,6.892c-3.42,2.336-4.299,7.003-1.962,10.423c2.336,3.42,7.002,4.298,10.423,1.962c4.086-2.79,12.586-8.598,11.996-20.069C81.021,69.07,57.713,37.339,46.576,33.244c-4.953-1.846-10.163-1.878-15.491-0.09C19.097,37.191,10.439,44.389,6.047,53.969c-4.26,9.294-4.125,20.077,0.395,31.189c11.661,28.612,27.976,53.647,48.491,74.412c0.05,0.051,0.101,0.101,0.153,0.15c20.75,20.477,45.756,36.762,74.33,48.409c5.722,2.327,11.357,3.492,16.746,3.492c5.074,0,9.932-1.032,14.438-3.098c9.581-4.391,16.778-13.048,20.818-25.044c1.784-5.318,1.755-10.526-0.077-15.456C177.232,156.856,145.501,133.548,133.5,132.896z"/>
  </symbol> -->
  <symbol id="recording" viewBox="0 0 512.011 512.011">
    <path d="m256.006 63.004c-63.411 0-115 51.589-115 115v125c0 56.591 41.089 103.766 95 113.259v40.774c-21.609 2.097-43.191 7.594-64.657 16.491-10.204 4.229-15.048 15.929-10.819 26.133s15.928 15.048 26.133 10.819c46.663-19.34 92.027-19.339 138.685 0 9.949 4.199 21.905-.51 26.134-10.817 4.229-10.204-.614-21.905-10.817-26.134-21.466-8.898-43.048-14.395-64.658-16.492v-40.773c53.911-9.493 95-56.667 95-113.259v-125c-.001-63.412-51.59-115.001-115.001-115.001zm75 240c-4.132 99.522-145.905 99.445-150 0v-125c4.132-99.522 145.905-99.445 150 0zm120-124.764c-1.048 26.512-38.941 26.541-40 0 0-59.609-34.835-114.625-88.746-140.16-9.983-4.729-14.242-16.654-9.514-26.636 4.729-9.982 16.654-14.242 26.636-9.514 67.133 31.094 112.351 102.158 111.624 176.31zm-350 0c-1.029 26.486-38.936 26.562-40 0-.728-74.151 44.492-145.217 111.624-176.31 9.98-4.728 21.907-.469 26.636 9.514 4.728 9.982.469 21.908-9.514 26.636-53.911 25.534-88.746 80.551-88.746 140.16zm180 117.764h-50c-26.536-1.056-26.516-38.953 0-40h50c26.536 1.057 26.515 38.954 0 40zm-242.498-206.888c8.35-20.348 19.522-39.421 33.207-56.691 6.86-8.657 5.403-21.236-3.254-28.096-8.656-6.86-21.236-5.403-28.096 3.254-16.014 20.209-29.089 42.531-38.862 66.348-4.193 10.219.691 21.902 10.91 26.095 2.485 1.02 5.056 1.503 7.585 1.503 7.872 0 15.337-4.679 18.51-12.413zm461.09 10.91c10.219-4.193 15.103-15.876 10.91-26.095-9.773-23.816-22.848-46.139-38.861-66.347-6.86-8.658-19.439-10.115-28.096-3.254-8.657 6.86-10.114 19.439-3.254 28.096 13.684 17.27 24.856 36.343 33.207 56.691 3.174 7.734 10.637 12.413 18.51 12.413 2.528-.001 5.1-.484 7.584-1.504z"/>
  </symbol>
  <!-- <symbol id="recording" viewBox="0 0 250.128 250.128">
    <path d="M229.415,73.41c-4.142,0-7.5,3.358-7.5,7.5s3.358,7.5,7.5,7.5c3.15,0,5.713,2.557,5.713,5.699v97.187c0,8.038-6.539,14.577-14.577,14.577s-14.577-6.539-14.577-14.577V49.955c0-11.414-9.292-20.7-20.714-20.7H20.698C9.285,29.255,0,38.541,0,49.955V200.16c0,11.161,8.874,20.265,19.93,20.674c0.253,0.026,0.509,0.039,0.769,0.039h177.775h22.077c16.309,0,29.577-13.268,29.577-29.577V94.109C250.128,82.696,240.836,73.41,229.415,73.41z M15,200.16V49.955c0-3.143,2.556-5.7,5.698-5.7H185.26c3.15,0,5.714,2.557,5.714,5.7v141.341c0,5.298,1.407,10.271,3.857,14.577H20.698C17.556,205.873,15,203.31,15,200.16z"/>
    <path d="M156.235,92.182h-46.683c-4.142,0-7.5,3.358-7.5,7.5s3.358,7.5,7.5,7.5h46.683c4.142,0,7.5-3.358,7.5-7.5S160.377,92.182,156.235,92.182z"/>
    <path d="M156.235,129.518H51.2c-4.142,0-7.5,3.358-7.5,7.5c0,4.142,3.358,7.5,7.5,7.5h105.035c4.142,0,7.5-3.358,7.5-7.5C163.735,132.876,160.377,129.518,156.235,129.518z"/>
    <path d="M156.235,166.854H51.2c-4.142,0-7.5,3.358-7.5,7.5c0,4.142,3.358,7.5,7.5,7.5h105.035c4.142,0,7.5-3.358,7.5-7.5C163.735,170.212,160.377,166.854,156.235,166.854z"/>
    <path d="M49.738,107.182h29.907c4.142,0,7.5-3.358,7.5-7.5V69.775c0-4.142-3.358-7.5-7.5-7.5c-4.142,0-7.5,3.358-7.5,7.5v22.407H49.738c-4.142,0-7.5,3.358-7.5,7.5S45.596,107.182,49.738,107.182z"/>
  </symbol> -->
  <symbol id="phone" viewBox="0 0 512.125 512.125">
    <path d="m330.968 512.125c-205.193-1.541-445.585-300.526-269.925-476.33 6.241-6.344 12.847-12.447 19.634-18.141 14.353-12.041 32.538-18.251 51.194-17.487 18.731.767 36.343 8.499 49.591 21.77.086.086.172.174.257.262l33.836 35.161c36.618 35.83 23.641 100.444-24.099 119.141-14.779 6.028-24.207 11.381-26.726 13.192-18.632 18.985-30.493 49.833 39.198 119.645 22.615 22.654 56.11 52.771 85.766 52.771 12.031 0 23.074-5.091 33.734-15.558 1.387-2.033 6.178-10.195 12.357-25.591 18.506-48.067 83.246-61.43 119.208-24.557l34.753 33.631c.083.08.165.161.246.242 13.195 13.218 20.916 30.781 21.74 49.454.824 18.661-5.312 36.836-17.275 51.177-5.308 6.362-10.977 12.572-16.852 18.457-41.385 41.457-91.486 62.76-146.637 62.761zm-202.148-472.072c-7.906 0-15.859 2.729-22.435 8.245-5.815 4.879-11.478 10.11-16.83 15.55-93.645 95.114-42.176 225.036 47.795 313.985 89.161 88.712 218.43 137.217 311.948 43.27 5.037-5.046 9.896-10.369 14.445-15.821 11.544-13.837 10.696-33.86-1.95-46.638l-34.732-33.612c-.083-.08-.165-.161-.246-.242-7.96-7.974-18.851-11.257-29.874-9.005-11.059 2.257-19.818 9.575-24.033 20.076-2.796 6.964-12.543 30.314-20.582 38.367-18.469 18.5-39.541 27.88-62.631 27.88-44.029 0-84.091-34.476-114.075-64.511-45.495-43.648-98.076-118.077-38.704-176.664 8.416-8.431 32.311-18.565 39.434-21.47 10.347-4.22 17.558-12.953 19.783-23.958 2.242-11.09-1.046-22.032-9.022-30.022-.086-.086-.172-.174-.257-.262l-33.815-35.14c-6.708-6.658-15.434-10.028-24.219-10.028zm363.067 199.053c-10.234 0-18.959-7.815-19.896-18.206-8.67-96.198-84.782-172.31-180.979-180.979-11.001-.991-19.115-10.713-18.124-21.714.99-11.002 10.719-19.117 21.714-18.124 112.478 8.41 208.816 104.75 217.227 217.226.992 11.001-7.123 20.723-18.124 21.714-.61.056-1.217.083-1.818.083zm-155.822-.03c10.479-3.496 16.139-14.823 12.643-25.302-7.845-23.514-26.251-42.402-49.236-50.527-10.412-3.682-21.841 1.777-25.521 12.192-3.682 10.414 1.777 21.841 12.191 25.522 11.446 4.046 20.651 13.568 24.623 25.472 2.795 8.378 10.597 13.676 18.969 13.676 2.097.001 4.232-.332 6.331-1.033zm78.574-.173c10.935-1.564 18.53-11.696 16.967-22.631-10.019-70.037-65.93-125.948-135.967-135.967-26.394-2.707-31.787 34.787-5.664 39.597 52.557 7.518 94.515 49.476 102.033 102.033 1.427 9.975 9.982 17.17 19.773 17.17.943.002 1.898-.065 2.858-.202z"/>
  </symbol>
  <!-- <symbol id="phone" viewBox="0 0 478.417 478.417">
    <path d="M283.682,352.1c-12.2-12-27.4-12-39.5,0c-9.2,9.2-18.5,18.3-27.6,27.7c-2.5,2.5-4.6,3.1-7.6,1.4c-6-3.2-12.3-5.9-18.1-9.5c-26.8-16.8-49.2-38.5-69.1-62.9c-9.9-12.1-18.7-25.1-24.7-39.6c-1.2-3-1-4.9,1.4-7.3c9.2-8.9,18.3-18.1,27.3-27.2c12.6-12.7,12.6-27.6-0.1-40.5c-7.2-7.3-14.5-14.5-21.7-21.7c-7.5-7.5-14.8-15-22.4-22.3c-12.2-12-27.4-12-39.5,0c-9.3,9.1-18.3,18.6-27.7,27.5c-8.8,8.4-13.2,18.5-14.1,30.4c-1.4,19.3,3.3,37.5,9.9,55.4c13.7,36.8,34.5,69.4,59.7,99.4c34,40.5,74.7,72.6,122.3,95.7c21.4,10.4,43.7,18.4,67.8,19.7c16.6,0.9,31.1-3.3,42.6-16.2c7.9-8.9,16.8-16.9,25.2-25.4c12.4-12.5,12.5-27.8,0.2-40.2C313.282,381.6,298.482,366.8,283.682,352.1z"/>
    <path d="M326.782,0c-83.7,0-151.5,67.8-151.5,151.5c0,39.5,15.1,75.5,39.9,102.4c-5.8,11.8-15.3,25.8-29.9,32.9c-5.1,2.5-3.9,10.1,1.7,11c16.5,2.6,40-0.2,62.2-16.3c22.7,13.6,49.3,21.4,77.7,21.4c83.7,0,151.5-67.8,151.5-151.5C478.282,67.9,410.482,0,326.782,0z M326.782,81.9c-38.4,0-69.6,31.2-69.6,69.6c0,10-8.1,18.1-18.1,18.1s-18.1-8.1-18.1-18.1c0-58.4,47.5-105.9,105.9-105.9c10,0,18.1,8.1,18.1,18.1C344.882,73.8,336.782,81.9,326.782,81.9z"/>
  </symbol> -->
  <!-- <symbol id="user" viewBox="0 0 472 472">
    <path d="M434.8,438.8C422.7,357,393.5,276.1,329.3,237c-26.5,20.9-59,32.2-93.3,32.2s-66.8-11.3-93.3-32.2C78.6,276.1,49.4,357,37.2,438.8C34.6,456.3,48.4,472,66.1,472h339.8C423.6,472,437.4,456.3,434.8,438.8z"/>
    <path d="M236,0c-65.1,0-118,52.8-118,118s52.8,118,118,118s118-52.8,118-118S301.1,0,236,0z M236,79.5c-21.2,0-38.4,17.2-38.4,38.4c0,9.7-7.9,17.6-17.6,17.6c-9.7,0-17.6-7.9-17.6-17.6c0-40.6,33-73.6,73.6-73.6c9.7,0,17.6,7.9,17.6,17.6S245.7,79.5,236,79.5z"/>
  </symbol> -->
  <symbol id="user" viewBox="0 0 511.971 511.971">
    <path d="m255.169 511.971c-69.406.029-135.278-19.086-192.057-57.487-20.972-14.187-33.895-37.778-34.57-63.103-.678-25.415 10.511-48.758 30.698-64.043 9.968-7.548 18.006-15.484 23.891-23.59 1.36-1.873 1.219-3.757.86-5.007-.305-1.065-1.173-2.996-3.558-3.961l-27.63-11.181c-49.074-18.506-51.464-88.508-3.623-110.16 14.437-6.606 30.576-7.181 45.444-1.618.262.098 1.63.843 2.79.123.974-.605.956-1.466.956-1.779v-21.019c0-45.929 19.623-85.273 56.747-113.781 60.174-47.153 139.931-47.153 200.105-.001 37.387 28.71 57.148 68.055 57.148 113.782v20.033c-.008 3.047 3.421 3.538 4.745 2.642 14.867-5.563 31.006-4.989 45.444 1.618 14.497 6.635 25.534 18.546 31.08 33.539 11.379 30.761-4.227 65.104-34.795 76.656l-28.358 11.183c-2.423.955-3.307 2.908-3.618 3.987-.361 1.25-.504 3.129.858 4.983 5.836 7.946 13.771 15.733 23.585 23.147 42.899 31.222 40.642 98.819-3.632 127.686-57.04 38.229-123.065 57.382-192.51 57.351zm-181.328-303.92c-2.731 0-5.455.588-8.015 1.76-15.788 7.159-14.932 30.425 1.27 36.429.165.062 28.34 11.46 28.34 11.46 27.283 10.443 37.678 46.211 20.062 69.551-8.199 11.292-19.003 22.05-32.112 31.976-9.772 7.4-15.188 18.731-14.859 31.089.337 12.645 6.533 23.958 16.998 31.038 96.827 67.598 242.751 67.262 339.881.04 21.748-14.022 22.741-47.298 1.792-62.542-12.91-9.753-23.579-20.312-31.71-31.384-8.451-11.503-11.022-25.991-7.054-39.747 3.995-13.853 13.974-24.828 27.376-30.114s28.722-11.325 28.831-11.366c10.109-3.783 15.259-15.171 11.48-25.384-1.83-4.946-5.456-8.869-10.211-11.045-4.638-2.124-9.817-2.332-14.603-.592-13.215 5.237-28.112 3.639-39.918-4.31-11.911-8.017-19.021-21.374-19.021-35.73v-20.033c0-33.298-13.966-60.905-41.51-82.057-46.258-36.128-105.123-36.128-151.381 0-27.277 20.946-41.108 48.554-41.108 82.056v21.019c.42 29.456-30.93 50.518-58.029 39.022-2.118-.759-4.311-1.136-6.499-1.136zm154.528-32.08c0 13.807-11.193 25-25 25-33.162-1.317-33.153-48.688 0-50 13.807 0 25 11.193 25 25zm78-25c-13.807 0-25 11.193-25 25 1.317 33.162 48.688 33.153 50 0 0-13.807-11.193-25-25-25z"/>
  </symbol>
  <symbol id="masters" viewBox="0 0 512.228 512.228">
    <path d="m257.015 512.142c-13.751 0-27.483-2.342-40.514-7.018l-92.643-33.242c-35.023-12.567-56.607-47.173-52.489-84.154l7.716-69.287c1.223-10.976 11.118-18.886 22.09-17.663 10.978 1.223 18.886 11.112 17.664 22.091l-7.716 69.287c-2.059 18.49 8.733 35.793 26.245 42.076l92.643 33.242c16.891 6.062 35.56 6.243 52.568.512l101.664-34.798c4.868-1.763 9.268-4.263 12.732-7.235 8.382-7.195 21.009-6.23 28.203 2.151 7.193 8.382 6.23 21.009-2.152 28.202-7.155 6.141-15.937 11.181-25.395 14.575-.093.033-102.188 34.979-102.188 34.979-12.435 4.191-25.44 6.282-38.428 6.282zm51.308-206.044 24.459-11.954c23.375-12.604 6.722-46.634-17.564-35.938l-24.437 11.943c-22.104 10.768-47.459 10.769-69.563-.001l-161.193-78.524c-12.518-6.099-20.003-18.096-20.025-32.093-.021-13.998 7.429-26.018 19.929-32.154l161.073-79.071c22.24-10.919 47.753-10.919 69.996 0l161.073 79.071c24.733 11.426 27.595 48.665 4.291 62.862-9.354 5.875-12.173 18.221-6.298 27.574s18.222 12.173 27.574 6.297c49.747-30.171 44.729-108.092-7.94-132.64l-161.073-79.07c-33.444-16.418-71.805-16.418-105.25 0l-161.073 79.071c-26.137 12.83-42.346 38.932-42.302 68.121.044 29.188 16.332 55.24 42.507 67.992l161.193 78.524c16.617 8.096 34.452 12.144 52.294 12.144 17.845 0 35.697-4.052 52.329-12.154zm71.066-109.363-93.327-46.033c-9.417-33.682-58.188-27.897-59.062 7.473-.425 20.613 21.641 35.667 40.659 28.051l94.036 46.382c13.758 6.787 22.305 20.533 22.305 35.874v92.693c1.056 26.536 38.953 26.516 40 0v-92.693c0-30.683-17.094-58.175-44.611-71.747z"/>
  </symbol>
  <!-- <symbol id="masters" viewBox="0 0 485.541 485.541">
    <path d="M136.475,105.77c-42.1,0-76.3,34.1-76.3,76.3s34.1,76.3,76.3,76.3s76.3-34.1,76.3-76.3S178.575,105.77,136.475,105.77z M136.475,157.17c-13.7,0-24.9,11.1-24.9,24.9c0,6.3-5.1,11.4-11.4,11.4s-11.4-5.1-11.4-11.4c0-26.3,21.4-47.6,47.6-47.6c6.3,0,11.4,5.1,11.4,11.4S142.675,157.17,136.475,157.17z"/>
    <path d="M349.075,53.77c-42.1,0-76.3,34.1-76.3,76.3s34.1,76.3,76.3,76.3s76.3-34.1,76.3-76.3S391.275,53.77,349.075,53.77z M349.075,105.17c-13.7,0-24.9,11.1-24.9,24.9c0,6.3-5.1,11.4-11.4,11.4s-11.4-5.1-11.4-11.4c0-26.3,21.4-47.6,47.6-47.6c6.3,0,11.4,5.1,11.4,11.4C360.475,100.07,355.375,105.17,349.075,105.17z"/>
    <path d="M485.475,309.07v-1.6c0-0.1,0-0.2,0-0.2c-0.7-21.5-4.7-36.3-26.7-50.1c-29.1-18.3-61.6-34.1-61.6-34.1l-25.9,81.8l-15.1-30.4c26.5-37-1.9-38.9-6.9-38.9l0,0c0,0-0.1,0-0.2,0s-0.1,0-0.2,0l0,0c-5.1,0-33.5,1.9-6.9,38.9l-15.1,30.4l-25.9-81.8c0,0-32.5,15.8-61.6,34.1c-6.7,4.2-11.7,8.5-15.5,13.1c10.5,5.7,22.5,12.6,34.1,19.9c14.1,8.9,23.8,19.2,29.7,31.6c5.8,12.3,7.1,24.9,7.4,35.7c0.1,0.7,0.1,1.4,0.1,2.1v1.3c0.1,4.4,0.1,8.9,0,13.5c0,0.3,0,0.5,0,0.8v4.6h53.7h136.5v-59.2c0,1,0,1.6,0,1.6C485.575,317.57,485.575,313.17,485.475,309.07z M485.275,306.87C485.275,306.47,485.275,306.47,485.275,306.87L485.275,306.87z"/>
    <path d="M272.775,361.07v-1.6c0-0.1,0-0.2,0-0.2c-0.6-21.5-4.7-36.3-26.7-50.1c-29.1-18.3-61.6-34.1-61.6-34.1l-25.9,81.8l-15.1-30.4c26.5-37-1.9-38.9-6.9-38.9l0,0c0,0-0.1,0-0.2,0s-0.1,0-0.2,0l0,0c-5.1,0-33.5,1.9-6.9,38.9l-15.1,30.4l-25.9-81.8c0,0-32.5,15.8-61.6,34.1c-21.9,13.8-25.9,28.6-26.6,50.1c0,0.1,0,0.1,0,0.2v1.6c-0.1,4.1-0.1,8.5,0,13.1c0,0,0-0.6,0-1.6v59.2h136.2h136.5v-59.2c0,1,0,1.6,0,1.6C272.875,369.57,272.875,365.17,272.775,361.07z"/>
    <path d="M0.275,358.87C0.275,358.47,0.275,358.47,0.275,358.87C0.275,358.97,0.275,358.87,0.275,358.87z"/>
    <path d="M272.575,358.97C272.575,358.47,272.575,358.47,272.575,358.97C272.575,358.87,272.575,358.97,272.575,358.97z"/>
  </symbol> -->
  <symbol id="microphone" viewBox="0 0 478 478">
    <path d="M394,196.1c0-11.9-9.7-21.6-21.6-21.6s-21.6,9.7-21.6,21.6c0,61.7-50.2,111.8-111.8,111.8s-111.8-50.2-111.8-111.8c0-11.9-9.7-21.6-21.6-21.6S84,184.2,84,196.1c0,78.2,58.1,143,133.4,153.5v85.2h-55.6c-11.9,0-21.6,9.7-21.6,21.6s9.7,21.6,21.6,21.6h154.5c11.9,0,21.6-9.7,21.6-21.6s-9.7-21.6-21.6-21.6h-55.6v-85.2C335.9,339.1,394,274.2,394,196.1z"/>
    <path d="M239,0L239,0c-46.4,0-84,37.6-84,84v110.7c0,46.4,37.6,84,84,84l0,0c46.4,0,84-37.6,84-84V84C323,37.6,285.4,0,239,0z M239.1,55.9c-15.1,0-27.4,12.3-27.4,27.4c0,6.9-5.6,12.5-12.5,12.5s-12.5-5.6-12.5-12.5c0-28.9,23.5-52.4,52.4-52.4c6.9,0,12.5,5.6,12.5,12.5S246,55.9,239.1,55.9z"/>
  </symbol>
  <!-- <symbol id="user" viewBox="0 0 512 512">
    <path d="M437.02,330.98c-27.883-27.882-61.071-48.523-97.281-61.018C378.521,243.251,404,198.548,404,148C404,66.393,337.607,0,256,0S108,66.393,108,148c0,50.548,25.479,95.251,64.262,121.962c-36.21,12.495-69.398,33.136-97.281,61.018C26.629,379.333,0,443.62,0,512h40c0-119.103,96.897-216,216-216s216,96.897,216,216h40C512,443.62,485.371,379.333,437.02,330.98z M256,256c-59.551,0-108-48.448-108-108S196.449,40,256,40c59.551,0,108,48.448,108,108S315.551,256,256,256z"/>
  </symbol> -->
</svg>
